<?xml version="1.0" encoding="utf-8"?>
<!-- Svg Vector Icons : http://www.onlinewebfonts.com/icon -->
<!DOCTYPE svg PUBLIC "-//W3C//DTD SVG 1.1//EN" "http://www.w3.org/Graphics/SVG/1.1/DTD/svg11.dtd">
<svg version="1.1" xmlns="http://www.w3.org/2000/svg" xmlns:xlink="http://www.w3.org/1999/xlink" fill="#cfd962" x="0px" y="0px" viewBox="0 0 1000 1000" enable-background="new 0 0 1000 1000" xml:space="preserve">
<metadata> Svg Vector Icons : http://www.onlinewebfonts.com/icon </metadata>
<g><g transform="translate(0.000000,340.000000) scale(0.100000,-0.100000)"><path d="M4848.5,3028.7c-71.6-41.3-170.7-245.1-727-1478.8c-355.2-784.8-655.4-1440.2-669.2-1454c-11-16.5-718.7-104.7-1566.9-198.3C1034.5-198.8,302-289.6,258-308.9C114.8-366.7,51.4-584.3,142.3-713.7c22-33,528.7-504,1120.8-1043.7c594.8-539.7,1112.5-1013.4,1153.9-1051.9l74.3-71.6l-313.9-1522.8C2003.9-5241,1860.7-5965.2,1860.7-6012c0-57.8,27.5-110.1,96.4-179c85.4-85.4,110.2-96.4,201-82.6c66.1,8.3,575.6,283.7,1459.5,787.6c746.3,424.1,1365.9,773.8,1379.7,773.8c11,0,633.4-349.7,1382.4-776.6C7572-6169,7753.8-6265.4,7858.4-6265.4c101.9-2.8,132.2,11,201,88.1c46.8,52.3,79.9,118.4,79.9,165.2c0,41.3-143.2,762.8-316.7,1602.7L7506-2881l90.9,85.4c46.8,46.8,567.3,520.4,1153.8,1051.9c583.8,531.5,1082.2,994.1,1107,1029.9c90.9,126.7,27.5,344.2-115.7,404.8c-41.3,16.5-773.8,110.2-1624.7,206.5C7266.4-8.7,6558.6,82.1,6544.9,95.9c-11,13.8-311.2,669.2-666.4,1454c-553.5,1228.2-655.4,1437.5-727,1481.6C5046.8,3094.8,4953.2,3094.8,4848.5,3028.7z"/></g></g>
</svg>