<?xml version="1.0" encoding="utf-8"?>
<!-- Svg Vector Icons : http://www.onlinewebfonts.com/icon -->
<!DOCTYPE svg PUBLIC "-//W3C//DTD SVG 1.1//EN" "http://www.w3.org/Graphics/SVG/1.1/DTD/svg11.dtd">
<svg version="1.1" xmlns="http://www.w3.org/2000/svg" xmlns:xlink="http://www.w3.org/1999/xlink" x="0px" y="0px" viewBox="0 0 1000 1000" enable-background="new 0 0 1000 1000" xml:space="preserve">
<metadata> Svg Vector Icons : http://www.onlinewebfonts.com/icon </metadata>
<g><g><g><path d="M882.5,356.1c-17.5-1.4-35.5-2.7-52.4-4.8c-9.3-1.1-18.9-2.2-28.7-3.3c-49.9-5.6-112.1-12.6-130.8-26.1c-18.1-13.2-45.1-69.4-66.8-114.5c-5.2-10.9-10.4-21.6-15.5-31.9c-8.2-16.6-16-34.5-23.7-51.9c-26.9-61.4-40.9-90.9-64.7-90.9c-23.8,0-37.8,29.5-64.7,90.9c-7.6,17.3-15.5,35.3-23.7,51.9c-5.1,10.3-10.3,21.1-15.5,31.9c-21.7,45.2-48.7,101.4-66.8,114.5c-18.7,13.6-80.8,20.5-130.8,26.1c-9.8,1.1-19.4,2.2-28.7,3.3c-16.9,2-34.9,3.4-52.4,4.8c-59.2,4.6-98.3,7.6-106.2,31.7c-7.3,22.4,16.8,45.6,67.6,91.6c14.8,13.4,30.2,27.3,44.2,41.3c9,8.9,18.4,18.1,28,27.3c36.8,35.7,82.7,80.1,89.5,101.2c5.3,16.2,5.7,33.4,0.9,48.4L190.7,910c-10.2,31.4-1.7,45.8,7.2,52.2c4.7,3.4,10.4,5.1,17.1,5.1c18.3,0,43.5-12.9,83.2-34c16.9-9,34.4-18.3,51.4-26.1c12.7-5.9,26-12.3,39.4-18.8c42.1-20.4,89.9-43.5,111.1-43.5c21.2,0,69,23.1,111.1,43.5c13.4,6.5,26.7,12.9,39.4,18.8c16.9,7.8,34.4,17.1,51.4,26.1c39.7,21.1,64.9,34,83.2,34c6.7,0,12.4-1.7,17.1-5.1c8.9-6.5,17.4-20.8,7.5-51l-51.5-215c-4.5-13.8-4-30.9,1.3-47.2c6.9-21.1,52.7-65.5,89.5-101.2c9.5-9.2,18.9-18.4,28-27.3c14-13.9,29.4-27.8,44.2-41.3c50.8-46,74.9-69.2,67.6-91.6C980.9,363.7,941.8,360.6,882.5,356.1z M899.1,455.1c-15.1,13.7-30.7,27.8-45.3,42.2c-8.9,8.8-18.3,17.9-27.7,27c-45.5,44.1-88.5,85.8-97.9,114.6c-7.5,23-7.9,46.9-1.6,66.2l51.5,215c2.1,6.5,2.9,11.1,3,14c-13.3-2.8-41.2-17.6-64-29.7c-17.3-9.2-35.2-18.7-53-26.9c-12.5-5.8-25.6-12.2-38.8-18.5c-49.7-24.1-96.6-46.8-125.4-46.8c-28.7,0-75.7,22.7-125.4,46.8c-13.2,6.4-26.3,12.7-38.8,18.5c-17.8,8.2-35.7,17.7-53,26.9c-22.8,12.1-50.6,26.9-63.9,29.7c0.2-3.1,1-8,3.4-15.3L273,706.4c6.7-20.5,6.2-44.4-1.3-67.4c-9.4-28.9-52.4-70.5-97.9-114.6c-9.4-9.1-18.8-18.2-27.7-27c-14.6-14.4-30.2-28.6-45.3-42.2c-20.9-19-48.7-44.2-56.3-56.5c13.3-5.1,50.1-7.9,75.4-9.9c17.8-1.4,36.2-2.8,53.8-4.9c9.2-1.1,18.8-2.2,28.5-3.3c62.1-7,120.7-13.5,146.4-32.2c24.8-18.1,50.2-70.9,77.1-126.9c5.2-10.8,10.3-21.4,15.3-31.6c8.5-17.3,16.5-35.5,24.3-53.2c11-25.1,25.6-58.3,34.7-69.1c9.1,10.7,23.7,44,34.7,69.1c7.7,17.7,15.8,35.9,24.3,53.2c5,10.2,10.2,20.9,15.3,31.6c26.9,56,52.3,108.8,77.1,126.9c25.7,18.7,84.3,25.2,146.4,32.2c9.7,1.1,19.3,2.2,28.5,3.3c17.6,2.1,36,3.5,53.8,4.9c25.3,2,62.1,4.8,75.4,9.9C947.8,410.9,920,436.1,899.1,455.1z"/></g></g><g></g><g></g><g></g><g></g><g></g><g></g><g></g><g></g><g></g><g></g><g></g><g></g><g></g><g></g><g></g></g>
</svg>